<svg width="38" height="38" viewBox="0 0 38 38" fill="none" xmlns="http://www.w3.org/2000/svg">
<g clip-path="url(#clip0_71_10)">
<g clip-path="url(#clip1_71_10)">
<path fill-rule="evenodd" clip-rule="evenodd" d="M27.3125 4.74997C26.8447 4.74997 26.3814 4.84212 25.9492 5.02115C25.517 5.20018 25.1242 5.46259 24.7934 5.7934C24.4626 6.12421 24.2002 6.51694 24.0212 6.94916C23.8421 7.38138 23.75 7.84464 23.75 8.31247C23.75 8.7803 23.8421 9.24356 24.0212 9.67578C24.2002 10.108 24.4626 10.5007 24.7934 10.8315C25.1242 11.1623 25.517 11.4248 25.9492 11.6038C26.3814 11.7828 26.8447 11.875 27.3125 11.875C28.2573 11.875 29.1635 11.4996 29.8316 10.8315C30.4997 10.1634 30.875 9.2573 30.875 8.31247C30.875 7.36764 30.4997 6.4615 29.8316 5.7934C29.1635 5.1253 28.2573 4.74997 27.3125 4.74997ZM21.4937 7.12497C21.7663 5.78275 22.4945 4.57603 23.5549 3.70927C24.6154 2.84251 25.9429 2.36902 27.3125 2.36902C28.6821 2.36902 30.0096 2.84251 31.0701 3.70927C32.1305 4.57603 32.8587 5.78275 33.1312 7.12497H38V9.49997H33.1312C32.8587 10.8422 32.1305 12.0489 31.0701 12.9157C30.0096 13.7824 28.6821 14.2559 27.3125 14.2559C25.9429 14.2559 24.6154 13.7824 23.5549 12.9157C22.4945 12.0489 21.7663 10.8422 21.4937 9.49997H0V7.12497H21.4937ZM10.6875 16.625C9.74267 16.625 8.83653 17.0003 8.16843 17.6684C7.50033 18.3365 7.125 19.2426 7.125 20.1875C7.125 21.1323 7.50033 22.0384 8.16843 22.7065C8.83653 23.3746 9.74267 23.75 10.6875 23.75C11.6323 23.75 12.5385 23.3746 13.2066 22.7065C13.8747 22.0384 14.25 21.1323 14.25 20.1875C14.25 19.2426 13.8747 18.3365 13.2066 17.6684C12.5385 17.0003 11.6323 16.625 10.6875 16.625ZM4.86875 19C5.1413 17.6578 5.86949 16.451 6.92994 15.5843C7.9904 14.7175 9.31789 14.244 10.6875 14.244C12.0571 14.244 13.3846 14.7175 14.4451 15.5843C15.5055 16.451 16.2337 17.6578 16.5063 19H38V21.375H16.5063C16.2337 22.7172 15.5055 23.9239 14.4451 24.7907C13.3846 25.6574 12.0571 26.1309 10.6875 26.1309C9.31789 26.1309 7.9904 25.6574 6.92994 24.7907C5.86949 23.9239 5.1413 22.7172 4.86875 21.375H0V19H4.86875ZM27.3125 28.5C26.3677 28.5 25.4615 28.8753 24.7934 29.5434C24.1253 30.2115 23.75 31.1176 23.75 32.0625C23.75 33.0073 24.1253 33.9134 24.7934 34.5815C25.4615 35.2496 26.3677 35.625 27.3125 35.625C28.2573 35.625 29.1635 35.2496 29.8316 34.5815C30.4997 33.9134 30.875 33.0073 30.875 32.0625C30.875 31.1176 30.4997 30.2115 29.8316 29.5434C29.1635 28.8753 28.2573 28.5 27.3125 28.5ZM21.4937 30.875C21.7663 29.5328 22.4945 28.326 23.5549 27.4593C24.6154 26.5925 25.9429 26.119 27.3125 26.119C28.6821 26.119 30.0096 26.5925 31.0701 27.4593C32.1305 28.326 32.8587 29.5328 33.1312 30.875H38V33.25H33.1312C32.8587 34.5922 32.1305 35.7989 31.0701 36.6657C30.0096 37.5324 28.6821 38.0059 27.3125 38.0059C25.9429 38.0059 24.6154 37.5324 23.5549 36.6657C22.4945 35.7989 21.7663 34.5922 21.4937 33.25H0V30.875H21.4937Z" fill="#F8F8F8"/>
</g>
</g>
<defs>
<clipPath id="clip0_71_10">
<rect width="38" height="38" fill="white"/>
</clipPath>
<clipPath id="clip1_71_10">
<rect width="38" height="38" fill="white"/>
</clipPath>
</defs>
</svg>
