<svg width="33" height="33" viewBox="0 0 33 33" fill="black" xmlns="http://www.w3.org/2000/svg">
<path d="M8.33333 8.33333C8.33333 9.17319 7.9997 9.97864 7.40584 10.5725C6.81197 11.1664 6.00652 11.5 5.16667 11.5C4.32681 11.5 3.52136 11.1664 2.9275 10.5725C2.33363 9.97864 2 9.17319 2 8.33333C2 7.49348 2.33363 6.68803 2.9275 6.09416C3.52136 5.5003 4.32681 5.16667 5.16667 5.16667C6.00652 5.16667 6.81197 5.5003 7.40584 6.09416C7.9997 6.68803 8.33333 7.49348 8.33333 8.33333ZM8.33333 8.33333L21 6.75M21 6.75C21 8.00978 21.5004 9.21796 22.3912 10.1088C23.282 10.9996 24.4902 11.5 25.75 11.5C27.0098 11.5 28.218 10.9996 29.1088 10.1088C29.9996 9.21796 30.5 8.00978 30.5 6.75C30.5 5.49022 29.9996 4.28204 29.1088 3.39124C28.218 2.50045 27.0098 2 25.75 2C24.4902 2 23.282 2.50045 22.3912 3.39124C21.5004 4.28204 21 5.49022 21 6.75ZM11.5 24.1667L19.4167 21.7917M7.54167 10.7083L19.9075 19.2108M19.4167 21C19.4167 21.8399 19.7503 22.6453 20.3442 23.2392C20.938 23.833 21.7435 24.1667 22.5833 24.1667C23.4232 24.1667 24.2286 23.833 24.8225 23.2392C25.4164 22.6453 25.75 21.8399 25.75 21C25.75 20.1601 25.4164 19.3547 24.8225 18.7608C24.2286 18.167 23.4232 17.8333 22.5833 17.8333C21.7435 17.8333 20.938 18.167 20.3442 18.7608C19.7503 19.3547 19.4167 20.1601 19.4167 21ZM2 25.75C2 27.0098 2.50045 28.218 3.39124 29.1088C4.28204 29.9996 5.49022 30.5 6.75 30.5C8.00978 30.5 9.21796 29.9996 10.1088 29.1088C10.9996 28.218 11.5 27.0098 11.5 25.75C11.5 24.4902 10.9996 23.282 10.1088 22.3912C9.21796 21.5004 8.00978 21 6.75 21C5.49022 21 4.28204 21.5004 3.39124 22.3912C2.50045 23.282 2 24.4902 2 25.75Z" stroke="#F8F8F8" stroke-width="3.16667" stroke-linecap="round" stroke-linejoin="round"/>
</svg>
