<svg width="38" height="38" viewBox="0 0 38 38" fill="none" xmlns="http://www.w3.org/2000/svg">
<path d="M22.5636 14.2507V16.6258C22.5636 17.1157 22.1628 17.5165 21.6729 17.5165H17.5165V21.6729C17.5165 22.1628 17.1157 22.5636 16.6258 22.5636H14.2507C13.7608 22.5636 13.36 22.1628 13.36 21.6729V17.5165H9.20357C8.71371 17.5165 8.31291 17.1157 8.31291 16.6258V14.2507C8.31291 13.7608 8.71371 13.36 9.20357 13.36H13.36V9.20357C13.36 8.71371 13.7608 8.3129 14.2507 8.3129H16.6258C17.1157 8.3129 17.5165 8.71371 17.5165 9.20357V13.36H21.6729C22.1628 13.36 22.5636 13.7608 22.5636 14.2507ZM37.4823 35.3818L35.3818 37.4823C34.6841 38.18 33.5559 38.18 32.8657 37.4823L25.4583 30.0823C25.1243 29.7483 24.9387 29.2956 24.9387 28.8205V27.6107C22.3187 29.6593 19.0232 30.8765 15.4383 30.8765C6.9101 30.8765 0 23.9664 0 15.4383C0 6.9101 6.9101 0 15.4383 0C23.9664 0 30.8765 6.9101 30.8765 15.4383C30.8765 19.0232 29.6593 22.3187 27.6107 24.9387H28.8205C29.2956 24.9387 29.7483 25.1243 30.0823 25.4583L37.4823 32.8582C38.1726 33.5559 38.1726 34.6841 37.4823 35.3818ZM25.5325 15.4383C25.5325 9.85673 21.0198 5.34401 15.4383 5.34401C9.85673 5.34401 5.34401 9.85673 5.34401 15.4383C5.34401 21.0198 9.85673 25.5325 15.4383 25.5325C21.0198 25.5325 25.5325 21.0198 25.5325 15.4383Z" fill="white"/>
</svg>
