<svg width="38" height="38" viewBox="0 0 38 38" fill="none" xmlns="http://www.w3.org/2000/svg">
<path d="M1.08826 27.1429H23.3403C23.4833 27.143 23.6248 27.1149 23.7569 27.0602C23.889 27.0056 24.009 26.9254 24.1101 26.8244C24.2112 26.7233 24.2913 26.6033 24.346 26.4712C24.4006 26.3391 24.4287 26.1975 24.4286 26.0546V22.8025C24.4287 22.6596 24.4006 22.518 24.346 22.386C24.2913 22.2539 24.2112 22.1339 24.1101 22.0328C24.009 21.9317 23.889 21.8515 23.7569 21.7969C23.6248 21.7422 23.4833 21.7142 23.3403 21.7143H1.08826C0.945316 21.7142 0.803753 21.7422 0.671669 21.7969C0.539585 21.8515 0.419572 21.9317 0.318495 22.0328C0.217419 22.1339 0.137263 22.2539 0.0826119 22.386C0.0279613 22.518 -0.000111213 22.6596 3.31105e-07 22.8025V26.0546C-0.000111213 26.1975 0.0279613 26.3391 0.0826119 26.4712C0.137263 26.6033 0.217419 26.7233 0.318495 26.8244C0.419572 26.9254 0.539585 27.0056 0.671669 27.0602C0.803753 27.1149 0.945316 27.143 1.08826 27.1429ZM1.08826 5.42857H23.3403C23.4833 5.42868 23.6248 5.40061 23.7569 5.34596C23.889 5.29131 24.009 5.21115 24.1101 5.11008C24.2112 5.009 24.2913 4.88899 24.346 4.7569C24.4006 4.62482 24.4287 4.48326 24.4286 4.34031V1.08826C24.4287 0.945316 24.4006 0.803753 24.346 0.671669C24.2913 0.539585 24.2112 0.419572 24.1101 0.318495C24.009 0.217419 23.889 0.137262 23.7569 0.0826118C23.6248 0.0279612 23.4833 -0.000111213 23.3403 3.31107e-07H1.08826C0.945316 -0.000111213 0.803753 0.0279612 0.671669 0.0826118C0.539585 0.137262 0.419572 0.217419 0.318495 0.318495C0.217419 0.419572 0.137263 0.539585 0.0826119 0.671669C0.0279613 0.803753 -0.000111213 0.945316 3.31105e-07 1.08826V4.34031C-0.000111213 4.48326 0.0279613 4.62482 0.0826119 4.7569C0.137263 4.88899 0.217419 5.009 0.318495 5.11008C0.419572 5.21115 0.539585 5.29131 0.671669 5.34596C0.803753 5.40061 0.945316 5.42868 1.08826 5.42857ZM36.6429 10.8571H1.35714C0.997206 10.8571 0.652012 11.0001 0.397498 11.2546C0.142985 11.5092 3.31105e-07 11.8543 3.31105e-07 12.2143V14.9286C3.31105e-07 15.2885 0.142985 15.6337 0.397498 15.8882C0.652012 16.1427 0.997206 16.2857 1.35714 16.2857H36.6429C37.0028 16.2857 37.348 16.1427 37.6025 15.8882C37.857 15.6337 38 15.2885 38 14.9286V12.2143C38 11.8543 37.857 11.5092 37.6025 11.2546C37.348 11.0001 37.0028 10.8571 36.6429 10.8571ZM36.6429 32.5714H1.35714C0.997206 32.5714 0.652012 32.7144 0.397498 32.9689C0.142985 33.2234 3.31105e-07 33.5686 3.31105e-07 33.9286V36.6429C3.31105e-07 37.0028 0.142985 37.348 0.397498 37.6025C0.652012 37.857 0.997206 38 1.35714 38H36.6429C37.0028 38 37.348 37.857 37.6025 37.6025C37.857 37.348 38 37.0028 38 36.6429V33.9286C38 33.5686 37.857 33.2234 37.6025 32.9689C37.348 32.7144 37.0028 32.5714 36.6429 32.5714Z" fill="white"/>
</svg>
