<svg width="38" height="38" viewBox="0 0 38 38" fill="black" xmlns="http://www.w3.org/2000/svg">
<path d="M38 26.4643V35.9643C38.0007 36.2318 37.9485 36.4968 37.8464 36.7441C37.7443 36.9914 37.5944 37.2161 37.4052 37.4052C37.2161 37.5944 36.9914 37.7443 36.7441 37.8464C36.4968 37.9485 36.2318 38.0007 35.9643 38H26.4643C24.65 38 23.7424 35.8031 25.0223 34.5223L28.0929 31.4518L19 22.3589L9.9046 31.4603L12.9777 34.5223C14.2576 35.8031 13.35 38 11.5357 38H2.03572C1.7682 38.0007 1.50318 37.9485 1.25589 37.8464C1.00861 37.7443 0.783923 37.5944 0.594756 37.4052C0.405589 37.2161 0.255665 36.9914 0.153599 36.7441C0.0515321 36.4968 -0.000664932 36.2318 6.39417e-06 35.9643V26.4643C6.39417e-06 24.6491 2.19603 23.7415 3.47768 25.0223L6.54737 28.0929L15.6462 19L6.54652 9.89866L3.47768 12.9777C2.19688 14.2585 6.39417e-06 13.3509 6.39417e-06 11.5357V2.03572C-0.000664932 1.7682 0.0515321 1.50318 0.153599 1.25589C0.255665 1.00861 0.405589 0.783923 0.594756 0.594756C0.783923 0.405589 1.00861 0.255665 1.25589 0.153599C1.50318 0.0515322 1.7682 -0.000664932 2.03572 6.39416e-06H11.5357C13.35 6.39416e-06 14.2576 2.19688 12.9777 3.47768L9.90715 6.54822L19 15.6411L28.0954 6.53974L25.0223 3.47768C23.7424 2.19688 24.65 6.39416e-06 26.4643 6.39416e-06H35.9643C36.2318 -0.000664932 36.4968 0.0515322 36.7441 0.153599C36.9914 0.255665 37.2161 0.405589 37.4052 0.594756C37.5944 0.783923 37.7443 1.00861 37.8464 1.25589C37.9485 1.50318 38.0007 1.7682 38 2.03572V11.5357C38 13.3509 35.804 14.2585 34.5223 12.9777L31.4526 9.90715L22.3538 19L31.4535 28.1013L34.5223 25.0308C35.8031 23.7415 38 24.6491 38 26.4643Z" fill="white"/>
</svg>
