<svg width="38" height="38" viewBox="0 0 38 38" fill="none" xmlns="http://www.w3.org/2000/svg">
<path d="M19 0C8.50403 0 0 8.50403 0 19C0 29.496 8.50403 38 19 38C29.496 38 38 29.496 38 19C38 8.50403 29.496 0 19 0ZM19 34.3226C10.5496 34.3226 3.67742 27.4504 3.67742 19C3.67742 10.5496 10.5496 3.67742 19 3.67742C27.4504 3.67742 34.3226 10.5496 34.3226 19C34.3226 27.4504 27.4504 34.3226 19 34.3226ZM25.4355 23.3363C23.8419 25.2516 21.4899 26.3548 19 26.3548C16.5101 26.3548 14.1581 25.2593 12.5645 23.3363C11.9133 22.5548 10.7565 22.4552 9.975 23.0988C9.19355 23.75 9.09395 24.9069 9.7375 25.6883C12.0359 28.4464 15.4145 30.0246 19 30.0246C22.5855 30.0246 25.9641 28.4464 28.2625 25.6883C28.9137 24.9069 28.8065 23.75 28.025 23.0988C27.2435 22.4552 26.0867 22.5548 25.4355 23.3363ZM10.4577 15.5524C11.0476 14.5028 11.9286 13.8976 12.871 13.8976C13.8133 13.8976 14.6944 14.5028 15.2843 15.5524L16.0121 16.8548C16.173 17.1383 16.4871 17.2149 16.7246 17.1383C17.0004 17.054 17.1843 16.7935 17.1613 16.5024C16.9085 13.277 14.6944 11.0323 12.871 11.0323C11.0476 11.0323 8.83347 13.277 8.58065 16.5024C8.55766 16.7859 8.74153 17.054 9.01734 17.1383C9.27782 17.2226 9.58427 17.1 9.72984 16.8548L10.4577 15.5524ZM25.129 11.0323C23.3056 11.0323 21.0915 13.277 20.8387 16.5024C20.8157 16.7859 20.9996 17.054 21.2754 17.1383C21.5436 17.2226 21.8423 17.1 21.9879 16.8548L22.7157 15.5524C23.3056 14.5028 24.1867 13.8976 25.129 13.8976C26.0714 13.8976 26.9524 14.5028 27.5423 15.5524L28.2702 16.8548C28.431 17.1383 28.7452 17.2149 28.9827 17.1383C29.2585 17.054 29.4423 16.7935 29.4194 16.5024C29.1665 13.277 26.9524 11.0323 25.129 11.0323Z" fill="white"/>
</svg>
